<?xml version="1.0" encoding="UTF-8"?>
<svg xmlns="http://www.w3.org/2000/svg" width="1200" height="630" viewBox="0 0 1200 630">
  <defs>
    <linearGradient id="bg" x1="0" x2="1" y1="0" y2="1">
      <stop offset="0%" stop-color="#0b1020"/>
      <stop offset="100%" stop-color="#111a2e"/>
    </linearGradient>
    <linearGradient id="brand" x1="0" x2="1" y1="0" y2="0">
      <stop offset="0%" stop-color="#72a1de"/>
      <stop offset="100%" stop-color="#a855f7"/>
    </linearGradient>
    <filter id="shadow" x="-20%" y="-20%" width="140%" height="140%">
      <feDropShadow dx="0" dy="8" stdDeviation="12" flood-color="#000" flood-opacity="0.4"/>
    </filter>
  </defs>
  <rect width="1200" height="630" fill="url(#bg)"/>

  <!-- Accent rings -->
  <circle cx="1040" cy="80" r="140" fill="none" stroke="url(#brand)" stroke-opacity="0.35" stroke-width="4"/>
  <circle cx="1080" cy="120" r="90" fill="none" stroke="url(#brand)" stroke-opacity="0.25" stroke-width="4"/>

  <!-- Title -->
  <g transform="translate(120,180)" font-family="Inter, Arial, Helvetica, sans-serif">
    <text x="0" y="0" font-size="64" font-weight="800" fill="url(#brand)" filter="url(#shadow)">Muhammad Usman</text>
    <text x="0" y="64" font-size="40" font-weight="600" fill="#e5eaf5" opacity="0.85">Front-end Developer</text>
    <text x="0" y="120" font-size="24" fill="#a9b4c6">HTML • CSS • JavaScript • React • Node.js</text>
  </g>

  <!-- Python-inspired badge -->
  <g transform="translate(970,410)" filter="url(#shadow)">
    <rect x="0" y="0" width="160" height="160" rx="24" fill="#0f172a" stroke="url(#brand)" stroke-opacity="0.4"/>
    <g transform="translate(24,16)">
      <path fill="#3776AB" d="M48 0h36c18 0 22 8.8 22 22v24c0 10-8 22-22 22H54c-15 0-28 12-28 28v6c0 13-3.7 22-22 22H0v-6c0-15 12-28 28-28h38c12 0 22-10 22-22V22C88 7 82 0 66 0H48z"/>
      <circle cx="116" cy="16" r="8" fill="#fff"/>
      <path fill="#FFD43B" d="M92 128H56c-18 0-22-8.8-22-22V82c0-10 8-22 22-22h30c16 0 30-14 30-30v-6c0-13 3.7-22 22-22h6v6c0 15-12 28-28 28H62c-12 0-22 10-22 22v38c0 15 8 30 22 30h32z"/>
      <circle cx="50" cy="112" r="8" fill="#0b1020"/>
    </g>
  </g>

  <!-- Footer tag -->
  <text x="120" y="560" font-size="20" fill="#a9b4c6" font-family="Inter, Arial, Helvetica, sans-serif">mu.ai.dev@gmail.com • github.com/MuhammadUsmanGM</text>
</svg>
